<svg width="101" height="100" viewBox="0 0 101 100" fill="none" xmlns="http://www.w3.org/2000/svg">
<mask id="mask0_378_1039" style="mask-type:alpha" maskUnits="userSpaceOnUse" x="8" y="8" width="84" height="84">
<path fill-rule="evenodd" clip-rule="evenodd" d="M50.0461 91.6663C27.0342 91.6663 8.34082 73.0115 8.34082 49.9997C8.34082 26.9878 27.0342 8.33301 50.0461 8.33301C73.058 8.33301 91.7514 26.9878 91.7514 49.9997C91.7514 73.0115 73.058 91.6663 50.0461 91.6663ZM57.8495 73.3187C55.8951 75.2713 52.7264 75.2713 50.7719 73.3187L31.9107 54.4749L31.8982 54.4624C29.9437 52.5098 29.9437 49.344 31.8982 47.3914L50.7718 28.5352C52.7263 26.5826 55.895 26.5826 57.8494 28.5352C59.8039 30.4878 59.8039 33.6536 57.8494 35.6063L42.5146 50.9269L57.8495 66.2476C59.804 68.2002 59.804 71.3661 57.8495 73.3187Z" fill="black"/>
</mask>
<g mask="url(#mask0_378_1039)">
<rect width="100.093" height="100" fill="#D6EBF0"/>
</g>
<path fill-rule="evenodd" clip-rule="evenodd" d="M50.7719 73.3189C52.7263 75.2716 55.8951 75.2716 57.8495 73.3189C59.8039 71.3663 59.8039 68.2005 57.8495 66.2479L42.5146 50.9271L57.8494 35.6065C59.8039 33.6539 59.8039 30.4881 57.8494 28.5355C55.895 26.5828 52.7262 26.5828 50.7718 28.5354L31.8981 47.3916C29.9437 49.3442 29.9437 52.5101 31.8981 54.4627C31.902 54.4666 31.9059 54.4705 31.9098 54.4743L50.7719 73.3189Z" fill="#187CBD"/>
</svg>
